<svg width="32" height="22" viewBox="0 0 32 22" fill="none" xmlns="http://www.w3.org/2000/svg">
<path d="M16.45 1C18.0884 1 19.6472 1.36301 21.0459 2.01236C21.2653 2.10807 21.4861 2.22262 21.7048 2.33728L20.7457 3.1589L19.3078 1.72611L16.8302 3.82729L15.3712 2.31794L10.8153 6.23425L13.7322 9.30989L12.5935 10.2648L15.4712 13.3405L14.3324 14.295L18.4489 18.6697L20.8852 16.5301L23.0043 18.823C22.5843 19.1287 22.1247 19.435 21.6258 19.702C20.1069 20.5233 18.3483 21 16.4702 21C10.695 21 6.00007 16.5117 6.00007 10.9914C5.97967 5.50843 10.6755 1 16.45 1ZM14.5315 10.3797L17.0293 8.24001L19.2677 10.6278L16.7694 12.7673L14.5315 10.3797ZM16.3104 14.5061L18.7878 12.3474L21.0459 14.7351L18.548 16.8748L16.3104 14.5061ZM12.7542 6.31092L15.2512 4.17125L17.4892 6.55906L14.9913 8.69863L12.7542 6.31092ZM17.3291 5.16436L19.1875 3.5598L20.8664 5.33645L19.0079 6.95997L17.3291 5.16436ZM20.6464 12.519L22.5042 10.9144L24.183 12.7096L22.3244 14.3152L20.6464 12.519ZM22.2846 16.1299L24.1432 14.5249L25.8206 16.3015L23.9628 17.9248L22.2846 16.1299ZM23.0441 7.877L24.2827 6.80712L25.4013 7.99195L24.1629 9.06144L23.0441 7.877ZM21.4455 4.34294L22.6843 3.25431L23.8037 4.45759L22.564 5.52737L21.4455 4.34294ZM24.6224 11.4114L25.8611 10.3416L27 11.526L25.7416 12.5955L24.6224 11.4114ZM19.0477 8.75596L20.9063 7.15129L22.5843 8.92755L20.7266 10.5325L19.0477 8.75596Z" fill="#036CB5"/>
</svg>
