<svg width="26" height="28" viewBox="0 0 26 28" fill="none" xmlns="http://www.w3.org/2000/svg">
<path fill-rule="evenodd" clip-rule="evenodd" d="M1 15.0839C1.27614 15.0839 1.5 15.3077 1.5 15.5839C1.5 16.1117 1.70642 16.618 2.11071 17.0757L2.1125 17.0777L2.11249 17.0777C2.94925 18.0352 4.56374 18.7296 6.494 18.7296C8.42426 18.7296 10.0388 18.0352 10.8755 17.0777L10.8773 17.0757C11.2817 16.618 11.488 16.1127 11.488 15.5839C11.488 15.3077 11.7119 15.0839 11.988 15.0839C12.2641 15.0839 12.488 15.3077 12.488 15.5839C12.488 16.393 12.1667 17.1262 11.6276 17.7367C10.5522 18.9665 8.62916 19.7296 6.494 19.7296C4.35885 19.7296 2.43582 18.9665 1.36041 17.7368C0.821232 17.1261 0.5 16.3918 0.5 15.5839C0.5 15.3077 0.723858 15.0839 1 15.0839Z" fill="white"/>
<path fill-rule="evenodd" clip-rule="evenodd" d="M11.988 18.7305C12.2641 18.7305 12.488 18.9544 12.488 19.2305C12.488 20.0389 12.1664 20.7736 11.6267 21.3845C11.4438 21.5915 11.1279 21.611 10.9209 21.4282C10.714 21.2454 10.6944 20.9294 10.8772 20.7224C11.2815 20.2648 11.488 19.7584 11.488 19.2305C11.488 18.9544 11.7118 18.7305 11.988 18.7305Z" fill="white"/>
<path fill-rule="evenodd" clip-rule="evenodd" d="M1 18.7305C1.27614 18.7305 1.5 18.9544 1.5 19.2305C1.5 19.7584 1.70642 20.2648 2.11071 20.7224C2.29354 20.9294 2.27398 21.2454 2.06703 21.4282C1.86008 21.611 1.5441 21.5915 1.36128 21.3845C0.821575 20.7736 0.5 20.0389 0.5 19.2305C0.5 18.9544 0.723858 18.7305 1 18.7305Z" fill="white"/>
<path fill-rule="evenodd" clip-rule="evenodd" d="M1 7.79254C1.27614 7.79254 1.5 8.0164 1.5 8.29254C1.5 8.82032 1.70641 9.32668 2.1107 9.78427L2.11249 9.78629L2.11249 9.7863C2.94924 10.7437 4.56374 11.4381 6.494 11.4381C8.42427 11.4381 10.0388 10.7437 10.8755 9.7863L10.877 9.78465C11.2818 9.32551 11.488 8.82006 11.488 8.29254C11.488 8.0164 11.7119 7.79254 11.988 7.79254C12.2641 7.79254 12.488 8.0164 12.488 8.29254C12.488 9.10078 12.1665 9.83382 11.6278 10.4452C10.5524 11.675 8.62926 12.4381 6.494 12.4381C4.35885 12.4381 2.43581 11.6751 1.3604 10.4454C0.82123 9.8347 0.5 9.10043 0.5 8.29254C0.5 8.0164 0.723858 7.79254 1 7.79254Z" fill="white"/>
<path fill-rule="evenodd" clip-rule="evenodd" d="M2.88562 2.48443C1.98048 3.08507 1.5 3.85928 1.5 4.64575C1.5 5.43222 1.98048 6.20643 2.88562 6.80707C3.78705 7.40525 5.06136 7.7915 6.494 7.7915C7.92665 7.7915 9.20096 7.40525 10.1024 6.80707C11.0075 6.20643 11.488 5.43222 11.488 4.64575C11.488 3.85928 11.0075 3.08507 10.1024 2.48443C9.20096 1.88625 7.92665 1.5 6.494 1.5C5.06136 1.5 3.78705 1.88625 2.88562 2.48443ZM2.3327 1.6512C3.4197 0.929876 4.8924 0.5 6.494 0.5C8.09561 0.5 9.56831 0.929876 10.6553 1.6512C11.7386 2.37006 12.488 3.41873 12.488 4.64575C12.488 5.87278 11.7386 6.92144 10.6553 7.6403C9.56831 8.36163 8.09561 8.7915 6.494 8.7915C4.8924 8.7915 3.4197 8.36163 2.3327 7.6403C1.2494 6.92144 0.5 5.87278 0.5 4.64575C0.5 3.41873 1.2494 2.37006 2.3327 1.6512Z" fill="white"/>
<path fill-rule="evenodd" clip-rule="evenodd" d="M1 11.4381C1.27614 11.4381 1.5 11.662 1.5 11.9381C1.5 12.4659 1.70642 12.9723 2.11071 13.4299L2.1125 13.432L2.11249 13.432C2.94926 14.3895 4.56375 15.0839 6.494 15.0839C8.42426 15.0839 10.0388 14.3895 10.8755 13.432L10.8773 13.4299C11.2816 12.9723 11.488 12.4659 11.488 11.9381C11.488 11.662 11.7119 11.4381 11.988 11.4381C12.2641 11.4381 12.488 11.662 12.488 11.9381C12.488 12.746 12.1668 13.4803 11.6276 14.091C10.5522 15.3208 8.62916 16.0839 6.494 16.0839C4.35885 16.0839 2.43581 15.3208 1.3604 14.091C0.82123 13.4803 0.5 12.746 0.5 11.9381C0.5 11.662 0.723858 11.4381 1 11.4381Z" fill="white"/>
<path fill-rule="evenodd" clip-rule="evenodd" d="M1 22.3765C1.27614 22.3765 1.5 22.6003 1.5 22.8765C1.5 23.6649 1.98085 24.439 2.88589 25.039C3.78741 25.6366 5.06175 26.0219 6.494 26.0219C7.92626 26.0219 9.2006 25.6366 10.1021 25.039C11.0072 24.439 11.488 23.6649 11.488 22.8765C11.488 22.6003 11.7119 22.3765 11.988 22.3765C12.2641 22.3765 12.488 22.6003 12.488 22.8765C12.488 24.1054 11.7384 25.154 10.6546 25.8725C9.56741 26.5932 8.09475 27.0219 6.494 27.0219C4.89326 27.0219 3.4206 26.5932 2.33336 25.8725C1.24965 25.154 0.5 24.1054 0.5 22.8765C0.5 22.6003 0.723858 22.3765 1 22.3765Z" fill="white"/>
<path fill-rule="evenodd" clip-rule="evenodd" d="M1.40685 20.677C1.61473 20.4952 1.93061 20.5164 2.11237 20.7243C2.94911 21.6813 4.56364 22.3753 6.49398 22.3753C8.42433 22.3753 10.0388 21.6813 10.8756 20.7243C11.0574 20.5164 11.3732 20.4952 11.5811 20.677C11.789 20.8588 11.8102 21.1746 11.6284 21.3825C10.5531 22.6123 8.62964 23.3753 6.49398 23.3753C4.35832 23.3753 2.43483 22.6123 1.35956 21.3825C1.1778 21.1746 1.19897 20.8588 1.40685 20.677Z" fill="white"/>
<path fill-rule="evenodd" clip-rule="evenodd" d="M11.988 4.14575C12.2642 4.14575 12.488 4.36961 12.488 4.64575V22.8763C12.488 23.1525 12.2642 23.3763 11.988 23.3763C11.7119 23.3763 11.488 23.1525 11.488 22.8763V4.64575C11.488 4.36961 11.7119 4.14575 11.988 4.14575Z" fill="white"/>
<path fill-rule="evenodd" clip-rule="evenodd" d="M1 4.14575C1.27614 4.14575 1.5 4.36961 1.5 4.64575V22.8763C1.5 23.1525 1.27614 23.3763 1 23.3763C0.723858 23.3763 0.5 23.1525 0.5 22.8763V4.64575C0.5 4.36961 0.723858 4.14575 1 4.14575Z" fill="white"/>
<path fill-rule="evenodd" clip-rule="evenodd" d="M14.186 22.3765C14.4622 22.3765 14.686 22.6003 14.686 22.8765C14.686 23.4042 14.8924 23.9106 15.2967 24.3681L15.2985 24.3702L15.2985 24.3702C16.1353 25.3276 17.7498 26.0219 19.68 26.0219C21.6103 26.0219 23.2248 25.3276 24.0616 24.3702L24.0633 24.3681C24.4676 23.9106 24.674 23.4042 24.674 22.8765C24.674 22.6003 24.8979 22.3765 25.174 22.3765C25.4502 22.3765 25.674 22.6003 25.674 22.8765C25.674 23.6843 25.3528 24.4186 24.8136 25.0292C23.7382 26.2589 21.8152 27.0219 19.68 27.0219C17.5449 27.0219 15.6218 26.2589 14.5464 25.0292C14.0073 24.4186 13.686 23.6843 13.686 22.8765C13.686 22.6003 13.9099 22.3765 14.186 22.3765Z" fill="white"/>
<path fill-rule="evenodd" clip-rule="evenodd" d="M14.186 15.0839C14.4622 15.0839 14.686 15.3077 14.686 15.5839C14.686 16.1117 14.8924 16.618 15.2967 17.0757L15.2985 17.0777L15.2985 17.0777C16.1353 18.0352 17.7498 18.7296 19.68 18.7296C21.6103 18.7296 23.2248 18.0352 24.0616 17.0777L24.0633 17.0757C24.4676 16.618 24.674 16.1117 24.674 15.5839C24.674 15.3077 24.8979 15.0839 25.174 15.0839C25.4502 15.0839 25.674 15.3077 25.674 15.5839C25.674 16.3918 25.3528 17.1261 24.8136 17.7367C23.7382 18.9665 21.8152 19.7296 19.68 19.7296C17.5449 19.7296 15.6219 18.9665 14.5464 17.7368C14.0073 17.1261 13.686 16.3918 13.686 15.5839C13.686 15.3077 13.9099 15.0839 14.186 15.0839Z" fill="white"/>
<path fill-rule="evenodd" clip-rule="evenodd" d="M16.0716 9.77695C15.1665 10.3776 14.686 11.1518 14.686 11.9382C14.686 12.7246 15.1665 13.4988 16.0716 14.0995C16.9731 14.6976 18.2474 15.0839 19.68 15.0839C21.1127 15.0839 22.387 14.6976 23.2884 14.0995C24.1936 13.4988 24.674 12.7246 24.674 11.9382C24.674 11.1518 24.1936 10.3776 23.2884 9.77695C22.387 9.17879 21.1127 8.79254 19.68 8.79254C18.2474 8.79254 16.9731 9.17879 16.0716 9.77695ZM15.5187 8.94371C16.6057 8.22241 18.0784 7.79254 19.68 7.79254C21.2816 7.79254 22.7543 8.22241 23.8413 8.94371C24.9246 9.66255 25.674 10.7112 25.674 11.9382C25.674 13.1652 24.9246 14.2139 23.8413 14.9327C22.7543 15.654 21.2816 16.0839 19.68 16.0839C18.0784 16.0839 16.6057 15.654 15.5187 14.9327C14.4354 14.2139 13.686 13.1652 13.686 11.9382C13.686 10.7112 14.4354 9.66255 15.5187 8.94371Z" fill="white"/>
<path fill-rule="evenodd" clip-rule="evenodd" d="M14.186 18.7305C14.4622 18.7305 14.686 18.9544 14.686 19.2305C14.686 19.7584 14.8925 20.2648 15.2967 20.7224L15.2985 20.7244L15.2985 20.7244C16.1353 21.6819 17.7498 22.3763 19.68 22.3763C21.6103 22.3763 23.2248 21.6819 24.0615 20.7244L24.0633 20.7224C24.4676 20.2648 24.674 19.7584 24.674 19.2305C24.674 18.9544 24.8979 18.7305 25.174 18.7305C25.4502 18.7305 25.674 18.9544 25.674 19.2305C25.674 20.0385 25.3528 20.7728 24.8136 21.3835C23.7382 22.6133 21.8152 23.3763 19.68 23.3763C17.5449 23.3763 15.6218 22.6133 14.5464 21.3835C14.0072 20.7728 13.686 20.0384 13.686 19.2305C13.686 18.9544 13.9099 18.7305 14.186 18.7305Z" fill="white"/>
<path fill-rule="evenodd" clip-rule="evenodd" d="M25.1741 11.4381C25.4502 11.4381 25.6741 11.662 25.6741 11.9381V22.8762C25.6741 23.1524 25.4502 23.3762 25.1741 23.3762C24.8979 23.3762 24.6741 23.1524 24.6741 22.8762V11.9381C24.6741 11.662 24.8979 11.4381 25.1741 11.4381Z" fill="white"/>
<path fill-rule="evenodd" clip-rule="evenodd" d="M14.186 11.4381C14.4622 11.4381 14.686 11.662 14.686 11.9381V22.8762C14.686 23.1524 14.4622 23.3762 14.186 23.3762C13.9099 23.3762 13.686 23.1524 13.686 22.8762V11.9381C13.686 11.662 13.9099 11.4381 14.186 11.4381Z" fill="white"/>
</svg>
