<svg width="32" height="18" viewBox="0 0 32 18" fill="none" xmlns="http://www.w3.org/2000/svg">
<path d="M4.86719 7.49899V3.77974C4.86719 2.33812 6.03569 1.16962 7.47731 1.16962H24.4396C25.8812 1.16962 27.0497 2.33812 27.0497 3.77974V7.82437" stroke="white" stroke-miterlimit="10" stroke-linecap="round" stroke-linejoin="round"/>
<path d="M29.6467 16.8292H28.4449C27.8892 16.8292 27.3738 16.4836 27.204 15.9552C26.2944 13.1301 26.2944 10.0901 27.204 7.26505C27.3738 6.73661 27.8892 6.39105 28.4449 6.39105H29.6467C30.4981 6.39105 31.1144 7.19262 30.8983 8.01674C30.2808 10.3727 30.2808 12.8475 30.8983 15.2035C31.1144 16.0264 30.4993 16.8292 29.6467 16.8292Z" stroke="white" stroke-miterlimit="10" stroke-linecap="round" stroke-linejoin="round"/>
<path d="M2.35322 16.8292H3.55497C4.11072 16.8292 4.6261 16.4836 4.79591 15.9552C5.70553 13.1301 5.70553 10.0901 4.79591 7.26505C4.6261 6.73661 4.11072 6.39105 3.55497 6.39105H2.35322C1.50178 6.39105 0.885469 7.19262 1.10159 8.01674C1.71909 10.3727 1.71909 12.8475 1.10159 15.2035C0.885469 16.0264 1.50059 16.8292 2.35322 16.8292Z" stroke="white" stroke-miterlimit="10" stroke-linecap="round" stroke-linejoin="round"/>
<path d="M27.0877 15.5241H4.91943" stroke="white" stroke-miterlimit="10" stroke-linecap="round" stroke-linejoin="round"/>
<path d="M26.5212 11.6089C19.7038 9.27431 12.3033 9.27431 5.48584 11.6089" stroke="white" stroke-miterlimit="10" stroke-linecap="round" stroke-linejoin="round"/>
</svg>
