<svg width="28" height="27" viewBox="0 0 28 27" fill="none" xmlns="http://www.w3.org/2000/svg">
<path d="M11.3501 20.302C16.8116 20.302 21.2391 15.8746 21.2391 10.413C21.2391 4.9515 16.8116 0.524048 11.3501 0.524048C5.88852 0.524048 1.46106 4.9515 1.46106 10.413C1.46106 15.8746 5.88852 20.302 11.3501 20.302Z" stroke="white" stroke-miterlimit="10" stroke-linecap="round" stroke-linejoin="round"/>
<path d="M26.2541 25.3081C25.6101 25.9521 24.5671 25.9521 23.9231 25.3081L20.0381 21.4231C19.3941 20.7791 19.3941 19.7361 20.0381 19.0921C20.6821 18.4481 21.7251 18.4481 22.3691 19.0921L26.2541 22.9771C26.8981 23.6211 26.8981 24.6641 26.2541 25.3081Z" stroke="white" stroke-miterlimit="10" stroke-linecap="round" stroke-linejoin="round"/>
<path d="M20.1401 19.203L17.9431 17.006" stroke="white" stroke-miterlimit="10"/>
</svg>
