<svg width="21" height="20" viewBox="0 0 21 20" fill="none" xmlns="http://www.w3.org/2000/svg">
<path fill-rule="evenodd" clip-rule="evenodd" d="M10.6402 0C5.1262 0 0.640198 4.48606 0.640198 10.0001C0.640198 15.5141 5.1262 20 10.6402 20C16.1542 20 20.6402 15.5141 20.6402 10.0001C20.6402 4.48606 16.1542 0 10.6402 0ZM10.6402 18.1818C6.12868 18.1818 2.45838 14.5115 2.45838 10.0001C2.45838 5.48861 6.12868 1.81818 10.6402 1.81818C15.1517 1.81818 18.822 5.48861 18.822 10.0001C18.822 14.5115 15.1517 18.1818 10.6402 18.1818ZM10.64 4.24243C9.9718 4.24243 9.42816 4.78643 9.42816 5.4551C9.42816 6.12316 9.9718 6.66667 10.64 6.66667C11.3083 6.66667 11.8519 6.12316 11.8519 5.4551C11.8519 4.78643 11.3083 4.24243 10.64 4.24243ZM9.73114 9.39395C9.73114 8.89189 10.1382 8.48486 10.6402 8.48486C11.1423 8.48486 11.5493 8.89189 11.5493 9.39395V14.8485C11.5493 15.3506 11.1423 15.7576 10.6402 15.7576C10.1382 15.7576 9.73114 15.3506 9.73114 14.8485V9.39395Z" fill="#4F4F4F"/>
</svg>
