<svg width="32" height="22" viewBox="0 0 32 22" fill="none" xmlns="http://www.w3.org/2000/svg">
<path d="M8.21306 20.9291V19.6299C8.23618 19.2047 7.93568 18.8268 7.5196 18.8032C7.49648 18.8032 7.45025 18.8032 7.42714 18.8032C7.14975 18.7795 6.87236 18.9213 6.71055 19.1811C6.57186 18.9449 6.31759 18.8032 6.0402 18.8032C5.80905 18.8032 5.57789 18.9213 5.4392 19.1102V18.8504H5V20.9291H5.4392V19.7717C5.39297 19.5118 5.57789 19.252 5.83216 19.2283C5.87839 19.2283 5.90151 19.2283 5.94774 19.2283C6.24824 19.2283 6.38693 19.4173 6.38693 19.7717V20.9291H6.82613V19.7717C6.80301 19.5118 6.98794 19.252 7.24221 19.2283C7.26533 19.2283 7.28844 19.2283 7.31156 19.2283C7.61206 19.2283 7.75075 19.4173 7.75075 19.7717V20.9291H8.21306ZM14.8472 18.8504H14.1307V18.2126H13.6915V18.8504H13.2754V19.2756H13.6915V20.2205C13.6915 20.6929 13.8764 21 14.408 21C14.593 21 14.801 20.9528 14.9628 20.8346L14.8472 20.4567C14.7317 20.5276 14.593 20.5748 14.4543 20.5748C14.2231 20.5748 14.1538 20.4331 14.1538 20.2205V19.2756H14.8704L14.8472 18.8504ZM18.6382 18.8032C18.407 18.8032 18.2221 18.9213 18.1065 19.1102V18.8504H17.6673V20.9291H18.1065V19.7717C18.1065 19.4173 18.2452 19.2283 18.5457 19.2283C18.6382 19.2283 18.7307 19.252 18.8231 19.2756L18.9618 18.8504C18.8462 18.8268 18.7307 18.8032 18.6382 18.8032ZM12.9055 19.0158C12.6513 18.874 12.3739 18.7795 12.0734 18.8032C11.5648 18.8032 11.2181 19.063 11.2181 19.4646C11.2181 19.7953 11.4724 20.0079 11.9116 20.0787L12.1196 20.1024C12.3508 20.126 12.4894 20.1969 12.4894 20.315C12.4894 20.4803 12.3276 20.5748 12.0271 20.5748C11.7729 20.5748 11.5417 20.5039 11.3568 20.3622L11.1487 20.7165C11.403 20.9055 11.7266 21 12.0271 20.9764C12.6281 20.9764 12.9518 20.6929 12.9518 20.2913C12.9518 19.8898 12.6744 19.7244 12.2352 19.6772L12.0271 19.6535C11.8422 19.6299 11.6804 19.5827 11.6804 19.4409C11.6804 19.2992 11.8191 19.2047 12.0734 19.2047C12.3045 19.2047 12.5126 19.2756 12.7206 19.3937L12.9055 19.0158ZM24.81 18.8032C24.5789 18.8032 24.3709 18.9213 24.2784 19.1102V18.8504H23.8392V20.9291H24.2784V19.7717C24.2784 19.4173 24.4171 19.2283 24.7176 19.2283C24.8101 19.2283 24.9025 19.252 24.995 19.2756L25.1337 18.8504C25.0181 18.8268 24.9025 18.8032 24.81 18.8032ZM19.0774 19.8898C19.0543 20.4803 19.4935 20.9528 20.0714 20.9764C20.0945 20.9764 20.1407 20.9764 20.1638 20.9764C20.4412 21 20.6955 20.9055 20.9035 20.7402L20.6955 20.3858C20.5337 20.5039 20.3487 20.5748 20.1638 20.5748C19.794 20.5512 19.5397 20.2441 19.5397 19.8661C19.5628 19.5354 19.8171 19.252 20.1638 19.2283C20.3487 19.2283 20.5337 19.2992 20.6955 19.4173L20.9035 19.063C20.6955 18.8976 20.4412 18.8032 20.1638 18.8032C19.5859 18.7795 19.1005 19.2047 19.0774 19.7953C19.0774 19.8189 19.0774 19.8661 19.0774 19.8898ZM23.2382 19.8898V18.8504H22.799V19.1102C22.6372 18.8976 22.406 18.8032 22.1518 18.8032C21.5508 18.8504 21.1116 19.3701 21.1578 19.9606C21.204 20.5039 21.6201 20.9528 22.1518 20.9764C22.406 20.9764 22.6372 20.8819 22.799 20.6693V20.9291H23.2382V19.8898ZM21.597 19.8898C21.6201 19.5354 21.9206 19.2756 22.2442 19.2992C22.591 19.3228 22.8452 19.6299 22.8221 19.9606C22.799 20.2913 22.5447 20.5512 22.198 20.5512C21.8513 20.5512 21.5739 20.2677 21.5739 19.937C21.597 19.937 21.597 19.9134 21.597 19.8898ZM16.2342 18.8032C15.6332 18.8032 15.1709 19.2992 15.1709 19.9134C15.1709 20.5276 15.6563 21 16.2573 21C16.5578 21 16.8583 20.9055 17.0894 20.7165L16.8814 20.3858C16.7196 20.5276 16.5116 20.5984 16.2804 20.5984C15.9799 20.622 15.7025 20.4095 15.6794 20.0787H17.205C17.205 20.0315 17.205 19.9606 17.205 19.9134C17.1819 19.252 16.7889 18.8032 16.2342 18.8032ZM16.2342 19.2047C16.5116 19.2047 16.7427 19.4173 16.7427 19.7008H15.6794C15.7025 19.4173 15.9337 19.2047 16.2342 19.2047ZM27.3759 19.8898V18H26.9367V19.0866C26.7749 18.874 26.5437 18.7795 26.2894 18.7795C25.6884 18.8268 25.2492 19.3465 25.2955 19.937C25.3417 20.4803 25.7578 20.9291 26.2894 20.9528C26.5437 20.9528 26.7749 20.8583 26.9367 20.6457V20.9055H27.3759V19.8898ZM27.8844 20.7402C27.9075 20.7402 27.9307 20.7402 27.9307 20.7402C27.9538 20.7402 27.9538 20.7638 27.9769 20.7638C28 20.7874 28 20.7874 28 20.811C28 20.8346 28 20.8346 28 20.8583C28 20.8819 28 20.8819 28 20.9055C28 20.9291 27.9769 20.9291 27.9769 20.9528C27.9538 20.9764 27.9538 20.9764 27.9307 20.9764C27.9075 20.9764 27.9075 20.9764 27.8844 20.9764C27.8613 20.9764 27.8382 20.9764 27.8382 20.9764C27.8151 20.9528 27.792 20.9291 27.7688 20.9055C27.7688 20.8819 27.7688 20.8819 27.7688 20.8583C27.7688 20.8346 27.7688 20.8346 27.7688 20.811C27.792 20.7874 27.8151 20.7638 27.8382 20.7402C27.8613 20.7638 27.8613 20.7402 27.8844 20.7402ZM27.8844 20.9764C27.9075 20.9764 27.9075 20.9764 27.9307 20.9764C27.9538 20.9764 27.9538 20.9528 27.9538 20.9528L27.9769 20.9291C27.9769 20.9055 27.9769 20.9055 27.9769 20.8819C27.9769 20.8583 27.9769 20.8583 27.9769 20.8346C27.9769 20.811 27.9769 20.811 27.9538 20.811L27.9307 20.7874C27.9075 20.7874 27.8844 20.7874 27.8613 20.7874C27.8382 20.7874 27.8382 20.811 27.8382 20.811L27.8151 20.8346C27.8151 20.8583 27.8151 20.8583 27.8151 20.8819C27.8151 20.9055 27.8151 20.9055 27.8151 20.9291C27.8151 20.9528 27.8151 20.9528 27.8382 20.9528L27.8613 20.9764H27.8844ZM27.8844 20.811C27.9075 20.811 27.9075 20.811 27.9307 20.811V20.8346V20.8583L27.9075 20.8819L27.9538 20.9291H27.9307L27.8844 20.8819V20.9291H27.8613V20.811H27.8844ZM27.8613 20.8346V20.8819H27.8844H27.9075V20.8583H27.8844L27.8613 20.8346ZM25.7116 19.8898C25.7347 19.5354 26.0352 19.2756 26.3588 19.2992C26.7055 19.3228 26.9598 19.6299 26.9367 19.9606C26.9136 20.2913 26.6593 20.5512 26.3126 20.5512C25.9658 20.5512 25.6884 20.2677 25.6884 19.937C25.7116 19.937 25.7116 19.9134 25.7116 19.8898ZM10.7095 19.8898V18.8504H10.2704V19.1102C10.1085 18.8976 9.87739 18.8032 9.62312 18.8032C9.02211 18.8504 8.58291 19.3701 8.62915 19.9606C8.67538 20.5039 9.09146 20.9528 9.62312 20.9764C9.87739 20.9764 10.1085 20.8819 10.2704 20.6693V20.9291H10.7095V19.8898ZM9.06834 19.8898C9.09146 19.5354 9.39196 19.2756 9.71558 19.2992C10.0623 19.3228 10.3166 19.6299 10.2935 19.9606C10.2704 20.2913 10.0161 20.5512 9.66935 20.5512C9.32261 20.5512 9.04523 20.2913 9.04523 19.937C9.04523 19.937 9.04523 19.9134 9.06834 19.8898Z" fill="#211E1F"/>
<path d="M19.447 2.80029H12.0387V16.148H19.447V2.80029Z" fill="#FF5F00"/>
<path d="M12.4858 9.50598C12.4858 6.88752 13.6992 4.46066 15.7429 2.80018C12.0387 -0.0737388 6.73796 0.564917 3.80018 4.20521C0.926264 7.90936 1.56491 13.2101 5.2052 16.1479C8.27071 18.5748 12.6135 18.5748 15.679 16.1479C13.6992 14.5513 12.4858 12.1244 12.4858 9.50598Z" fill="#EB001B"/>
<path d="M29.4738 9.50592C29.4738 14.1681 25.7058 17.9999 20.9798 17.9999C19.0639 17.9999 17.2118 17.3613 15.7429 16.2117C19.4471 13.3378 20.0857 7.97318 17.1479 4.33289C16.7009 3.82198 16.2538 3.31105 15.7429 2.92786C19.4471 0.0539467 24.7479 0.692602 27.6218 4.33289C28.8352 5.73792 29.4738 7.58998 29.4738 9.50592ZM28.6436 14.7428V14.4874H28.7713V14.4235H28.5159V14.4874H28.5797V14.7428H28.6436ZM29.2184 14.7428V14.4235H29.1545L29.0907 14.679L28.9629 14.4235H28.8991V14.7428H28.9629V14.4874L29.0268 14.679H29.0907L29.1545 14.4874V14.7428H29.2184Z" fill="#F79E1B"/>
</svg>
