<svg width="32" height="22" viewBox="0 0 32 22" fill="none" xmlns="http://www.w3.org/2000/svg">
<g opacity="0.8">
<g clip-path="url(#clip0)">
<path fill-rule="evenodd" clip-rule="evenodd" d="M8.62299 7V7.00393C8.61904 7.00393 7.37305 7 7.04079 8.18297C6.73622 9.26769 5.87787 12.2624 5.85414 12.345H5.61681C5.61681 12.345 4.73869 9.28341 4.43016 8.17904C4.0979 6.99607 2.84796 7 2.84796 7H0V16H2.84796V10.655H2.96663H3.08529L4.7466 16H6.72435L8.38566 10.659H8.62299V16H11.471V7H8.62299Z" fill="#4DB45E"/>
<path fill-rule="evenodd" clip-rule="evenodd" d="M19.0259 7C19.0259 7 18.1913 7.07467 17.7997 7.94323L15.7824 12.345H15.5451V7H12.6971V16H15.3869C15.3869 16 16.2611 15.9214 16.6526 15.0568L18.6304 10.655H18.8677V16H21.7157V7H19.0259Z" fill="#4DB45E"/>
<path fill-rule="evenodd" clip-rule="evenodd" d="M22.9813 11.0874V16.0001H25.8293V13.1311H28.9146C30.2594 13.1311 31.3986 12.2782 31.8219 11.0874H22.9813Z" fill="#4DB45E"/>
<path fill-rule="evenodd" clip-rule="evenodd" d="M28.9145 7H22.5818C22.8982 8.71354 24.1917 10.0891 25.8649 10.5371C26.2446 10.6393 26.6441 10.6943 27.0555 10.6943H31.9366C31.9801 10.49 31.9998 10.2817 31.9998 10.0655C31.9998 8.37162 30.6194 7 28.9145 7Z" fill="url(#paint0_linear)"/>
</g>
</g>
<defs>
<linearGradient id="paint0_linear" x1="22.5826" y1="8.84716" x2="31.9998" y2="8.84716" gradientUnits="userSpaceOnUse">
<stop offset="0.3" stop-color="#00B4E6"/>
<stop offset="1" stop-color="#088CCB"/>
</linearGradient>
<clipPath id="clip0">
<rect width="32" height="9" fill="white" transform="translate(0 7)"/>
</clipPath>
</defs>
</svg>
