<svg width="32" height="22" viewBox="0 0 32 22" fill="none" xmlns="http://www.w3.org/2000/svg">
<g clip-path="url(#clip0)">
<path d="M22.5985 14.4509C22.6493 14.8385 22.5351 15.0064 22.4081 15.0064C22.2812 15.0064 22.1035 14.8514 21.9132 14.5413C21.7228 14.2312 21.6466 13.8824 21.7482 13.7015C21.8116 13.5852 21.9385 13.5335 22.1162 13.5981C22.4335 13.7144 22.5605 14.2183 22.5985 14.4509ZM20.7963 15.3036C21.1897 15.6395 21.3039 16.04 21.1009 16.3113C20.9866 16.4664 20.7963 16.5439 20.5805 16.5439C20.3647 16.5439 20.1363 16.4664 19.984 16.3242C19.6286 16.0142 19.5271 15.4974 19.7555 15.2131C19.8444 15.0968 19.9967 15.0322 20.1617 15.0322C20.3774 15.0452 20.6059 15.1356 20.7963 15.3036ZM20.149 18.5335C21.8243 18.5335 23.6393 19.1149 25.6446 20.9366C25.8477 21.1175 26.1142 20.8979 25.9365 20.6653C23.9566 18.1201 22.1289 17.6421 20.314 17.2286C18.0929 16.7248 16.9379 15.4586 16.1383 14.0503C15.9733 13.7661 15.9098 13.8178 15.8971 14.1795C15.8844 14.6188 15.9098 15.2002 16.0114 15.7687C15.9225 15.7687 15.8337 15.7687 15.7448 15.7687C12.5591 15.7687 9.96994 13.133 9.96994 9.89013C9.96994 6.64724 12.5591 4.01158 15.7448 4.01158C18.9305 4.01158 21.5197 6.64724 21.5197 9.89013C21.5197 10.1227 21.507 10.3552 21.4816 10.5749C21.0628 10.4974 20.2251 10.4844 19.6413 10.5361C19.4255 10.549 19.4509 10.6653 19.6159 10.6912C21.5197 11.04 22.8397 12.2416 23.1316 14.4379C23.1443 14.4896 23.2077 14.5025 23.2331 14.4638C24.02 13.133 24.4643 11.5697 24.4643 9.90305C24.4643 4.99349 20.5551 1.01416 15.7321 1.01416C10.9092 1.01416 7 4.98057 7 9.89013C7 14.7997 10.9092 18.779 15.7321 18.779C17.014 18.7919 18.2832 18.5335 20.149 18.5335Z" fill="#FF8C00"/>
</g>
<defs>
<clipPath id="clip0">
<rect width="19" height="20" fill="white" transform="translate(7 1)"/>
</clipPath>
</defs>
</svg>
