<svg width="32" height="22" viewBox="0 0 32 22" fill="none" xmlns="http://www.w3.org/2000/svg">
<path d="M24.1632 4.84577C23.9387 4.53975 23.7166 4.23373 23.5211 3.92529L11.5197 10.8072L5.72661 7.49156C5.59365 7.84933 5.51237 8.22417 5.48523 8.60481L11.5752 12.1253L24.1632 4.84577Z" fill="#2F9A41"/>
<path d="M11.5197 13.3976L5.29693 9.83138C5.25088 10.0507 5.23223 10.2749 5.24141 10.4989C5.24141 13.2255 6.32642 15.8404 8.25775 17.7684C10.1891 19.6964 12.8085 20.7796 15.5399 20.7796C18.2712 20.7796 20.8906 19.6964 22.822 17.7684C24.7533 15.8404 25.8383 13.2255 25.8383 10.4989C25.8498 8.87208 25.4673 7.26664 24.7231 5.81934L11.5197 13.3976Z" fill="#2F9A41"/>
<path d="M22.6835 3.0627C22.3902 2.78635 22.0824 2.52574 21.7614 2.28198L11.5197 8.21692L6.58108 5.40246C6.41453 5.70849 6.24557 6.04343 6.05005 6.40487L11.4642 9.52536L22.6835 3.0627Z" fill="#2F9A41"/>
<path d="M20.7572 1.61449C20.3696 1.38284 19.9663 1.17833 19.5503 1.00244L11.5196 5.61931L7.92067 3.5928C7.67929 3.83377 7.43791 4.14943 7.19653 4.45545L11.4931 6.90847L20.7572 1.61449Z" fill="#2F9A41"/>
</svg>
