<svg width="28" height="27" viewBox="0 0 28 27" fill="none" xmlns="http://www.w3.org/2000/svg">
<path fill-rule="evenodd" clip-rule="evenodd" d="M11.3501 1.02405C6.16466 1.02405 1.96106 5.22765 1.96106 10.413C1.96106 15.5984 6.16466 19.802 11.3501 19.802C16.5355 19.802 20.7391 15.5984 20.7391 10.413C20.7391 5.22765 16.5355 1.02405 11.3501 1.02405ZM0.96106 10.413C0.96106 4.67536 5.61237 0.0240479 11.3501 0.0240479C17.0877 0.0240479 21.7391 4.67536 21.7391 10.413C21.7391 13.102 20.7175 15.5524 19.0413 17.3972L20.0738 18.4297C20.9023 17.9164 22.0035 18.0194 22.7226 18.7385L26.6076 22.6235C27.4469 23.4628 27.4469 24.8223 26.6076 25.6616C25.7684 26.5009 24.4088 26.5009 23.5695 25.6616L19.6845 21.7766C18.9686 21.0607 18.8634 19.9662 19.3688 19.1389L18.3342 18.1043C16.4894 19.7805 14.039 20.802 11.3501 20.802C5.61237 20.802 0.96106 16.1507 0.96106 10.413ZM22.0155 19.4456C21.5668 18.9969 20.8403 18.9969 20.3916 19.4456C19.9429 19.8943 19.9429 20.6208 20.3916 21.0695L24.2766 24.9545C24.7253 25.4032 25.4518 25.4032 25.9005 24.9545C26.3492 24.5058 26.3492 23.7793 25.9005 23.3306L22.0155 19.4456Z" fill="white"/>
</svg>
