<svg width="32" height="18" viewBox="0 0 32 18" fill="none" xmlns="http://www.w3.org/2000/svg">
<path fill-rule="evenodd" clip-rule="evenodd" d="M4.42237 15.4696C4.42868 15.4115 4.44492 15.3564 4.46937 15.306C5.16928 12.8124 5.14707 10.1687 4.40273 7.68451C4.39226 7.65831 4.38394 7.63102 4.37799 7.60285C4.3591 7.54123 4.33978 7.47971 4.32 7.4183C4.31039 7.3884 4.29865 7.35901 4.28509 7.33081C4.16084 7.07252 3.87751 6.89105 3.555 6.89105H2.35325C1.83084 6.89105 1.45192 7.3814 1.58527 7.88991L1.59492 7.92693L0.617961 8.14351C0.319118 7.00379 1.17281 5.89105 2.35325 5.89105H3.555C3.83821 5.89105 4.11684 5.95714 4.36719 6.07959V3.77974C4.36719 2.06198 5.75954 0.669617 7.47731 0.669617H24.4396C26.1573 0.669617 27.5497 2.06197 27.5497 3.77974V6.1229C27.8207 5.97279 28.13 5.89105 28.445 5.89105H29.6468C30.8272 5.89105 31.6809 7.00379 31.382 8.14351C30.7863 10.4163 30.7863 12.8037 31.382 15.0765L29.9733 12.6656C29.8579 11.0664 30.0051 9.45293 30.4147 7.88997C30.5481 7.38147 30.1692 6.89105 29.6468 6.89105H28.445C28.0872 6.89105 27.7777 7.11415 27.6801 7.41802C27.634 7.56106 27.5903 7.70495 27.5491 7.84907C27.5454 7.9254 27.5245 7.99722 27.4904 8.0608C27.4683 8.14278 27.4471 8.22491 27.4266 8.30719C26.8567 10.5974 26.8887 12.9995 27.5226 15.2772C27.5606 15.344 27.5837 15.4205 27.5872 15.502C27.617 15.6022 27.6479 15.7022 27.68 15.8019C27.7777 16.1058 28.0872 16.3292 28.445 16.3292H29.6468C30.1699 16.3292 30.5481 15.8382 30.4148 15.3305C30.1852 14.4544 30.0379 13.562 29.9733 12.6656L31.382 15.0765C31.6807 16.2146 30.8288 17.3292 29.6468 17.3292H28.445C27.6914 17.3292 26.9702 16.8613 26.7281 16.1084L26.7013 16.0241H5.29874L5.27188 16.1084C5.02981 16.8613 4.30861 17.3292 3.555 17.3292H2.35325C1.17112 17.3292 0.3191 16.2147 0.618024 15.0765C1.21367 12.8037 1.21364 10.4163 0.617961 8.14351L1.59492 7.92693C2.22452 10.3549 2.22133 12.9035 1.58529 15.3303C1.45196 15.8379 1.83013 16.3292 2.35325 16.3292H3.555C3.9128 16.3292 4.22226 16.1061 4.31991 15.8022C4.35548 15.6917 4.38969 15.5807 4.42237 15.4696ZM7.47731 1.66962C6.31183 1.66962 5.36719 2.61426 5.36719 3.77974V7.41934C5.70856 8.56511 5.90688 9.74231 5.96214 10.9246C12.4909 8.83652 19.5089 8.83576 26.038 10.9223C26.0887 9.84028 26.2593 8.76251 26.5497 7.70922V3.77974C26.5497 2.61426 25.605 1.66962 24.4396 1.66962H7.47731ZM26.0263 11.97C19.5151 9.81984 12.4845 9.82064 5.97369 11.9724C5.94839 12.9973 5.8157 14.0203 5.57563 15.0241H26.4244C26.1841 14.0195 26.0514 12.9957 26.0263 11.97Z" fill="white"/>
</svg>
