<svg width="32" height="22" viewBox="0 0 32 22" fill="none" xmlns="http://www.w3.org/2000/svg">
<path d="M20.0623 5.13599H12.9398V16.8619H20.0623V5.13599Z" fill="#FF5F00"/>
<path d="M13.6735 11C13.6726 9.87091 13.9265 8.7564 14.416 7.74082C14.9056 6.72525 15.6179 5.83522 16.499 5.13809C15.4077 4.27356 14.097 3.73596 12.7169 3.58673C11.3367 3.4375 9.9428 3.68267 8.69435 4.29421C7.44591 4.90576 6.39334 5.859 5.65694 7.045C4.92054 8.231 4.53003 9.60191 4.53003 11.001C4.53003 12.4002 4.92054 13.7711 5.65694 14.9571C6.39334 16.1431 7.44591 17.0963 8.69435 17.7079C9.9428 18.3194 11.3367 18.5646 12.7169 18.4154C14.097 18.2661 15.4077 17.7285 16.499 16.864C15.6176 16.1666 14.9051 15.2763 14.4156 14.2603C13.9261 13.2444 13.6723 12.1295 13.6735 11Z" fill="#EB001B"/>
<path d="M27.7622 15.6213V15.381H27.8649V15.3313H27.6204V15.381H27.7169V15.6213H27.7622ZM28.2368 15.6213V15.3313H28.1629L28.0766 15.5384L27.9903 15.3313H27.9163V15.6213H27.9697V15.4017L28.0498 15.5902H28.1053L28.1855 15.4017V15.6213H28.2368Z" fill="#F79E1B"/>
<path d="M28.4691 11C28.4691 12.3992 28.0785 13.7702 27.3419 14.9563C26.6054 16.1423 25.5527 17.0955 24.3041 17.707C23.0555 18.3185 21.6614 18.5635 20.2812 18.414C18.901 18.2646 17.5903 17.7267 16.499 16.8619C17.3798 16.1642 18.0919 15.2739 18.5816 14.2583C19.0712 13.2426 19.3257 12.1282 19.3257 10.999C19.3257 9.86977 19.0712 8.75531 18.5816 7.73968C18.0919 6.72405 17.3798 5.83377 16.499 5.13603C17.5903 4.27122 18.901 3.73336 20.2812 3.58392C21.6614 3.43447 23.0555 3.67948 24.3041 4.29094C25.5527 4.9024 26.6054 5.85562 27.3419 7.04167C28.0785 8.22771 28.4691 9.5987 28.4691 10.9979V11Z" fill="#F79E1B"/>
<path d="M32 1H0V21H32V1Z" fill="white"/>
<path d="M31.4568 17.7883H0.543213V20.5134H31.4568V17.7883Z" fill="#EAAB44"/>
<path d="M31.4568 1.5354H0.543213V4.26046H31.4568V1.5354Z" fill="#3B477D"/>
<path d="M12.8889 7.27733L9.67904 14.7712H7.60497L6.07411 8.78585C5.97534 8.39655 5.87657 8.29923 5.62966 8.10458C5.13583 7.86127 4.39509 7.61797 3.70374 7.47198L3.75312 7.27733H7.11114C7.55559 7.27733 7.90127 7.5693 8.00003 8.05592L8.83954 12.3868L10.9136 7.27733H12.8889ZM21.0865 12.3382C21.0865 10.343 18.321 10.2457 18.321 9.36979C18.321 9.07782 18.5679 8.83451 19.1605 8.73719C19.4568 8.68852 20.2469 8.68853 21.0865 9.07782L21.4321 7.47198C20.9383 7.32599 20.3457 7.13135 19.605 7.13135C17.679 7.13135 16.2963 8.15325 16.2963 9.6131C16.2963 10.6837 17.284 11.3163 18.0247 11.6569C18.8148 12.0462 19.0618 12.2408 19.0618 12.5815C19.0618 13.0681 18.4692 13.3114 17.8766 13.3114C16.8889 13.3114 16.2963 13.0681 15.8519 12.8248L15.5062 14.4793C15.9506 14.6739 16.8395 14.8686 17.679 14.8686C19.7037 14.8686 21.0865 13.8953 21.0865 12.3382ZM26.2223 14.7712H28.0494L26.4692 7.27733H24.7902C24.3951 7.27733 24.0988 7.47198 23.9506 7.81261L20.9877 14.7712H23.0618L23.4568 13.652H25.9753L26.2223 14.7712ZM24 12.0949L25.0371 9.27247L25.6297 12.0949H24ZM15.7037 7.27733L14.0741 14.7712H12.0988L13.7284 7.27733H15.7037Z" fill="#3B477D"/>
</svg>
