<svg width="32" height="22" viewBox="0 0 32 22" fill="none" xmlns="http://www.w3.org/2000/svg">
<g clip-path="url(#clip0)">
<path d="M8 10.4283C8 9.36246 8.0922 8.68608 10.3901 7.03272C12.2837 5.66631 18.3759 1 18.3759 1V8.78856H23.0071V20H9.44681C8.65248 20 8 19.3714 8 18.6063V10.4283Z" fill="#F5CA44"/>
<path d="M18.3759 8.78857V13.3046L9.86523 18.8864L20.6241 15.5182V8.78857H18.3759Z" fill="#BE9E34"/>
<path d="M14.4822 8.55629C14.9787 7.9824 15.7092 7.78427 16.1063 8.10538C16.5035 8.42649 16.4255 9.15068 15.929 9.72458C15.4326 10.2985 14.7021 10.4966 14.3049 10.1755C13.9077 9.85439 13.9858 9.13019 14.4822 8.55629Z" fill="black"/>
</g>
<defs>
<clipPath id="clip0">
<rect width="15" height="19" fill="white" transform="translate(8 1)"/>
</clipPath>
</defs>
</svg>
