<svg xmlns="http://www.w3.org/2000/svg">
	<symbol id="logo" viewBox="0 0 65 64">
		<rect x="0.5" y="0.5" width="64" height="63" stroke="#967850"/>
		<path fill-rule="evenodd" clip-rule="evenodd" d="M32 31.6L49.4855 42.0913C50.152 42.4912 51 42.0111 51 41.2338V20.7662C51 19.9889 50.152 19.5088 49.4855 19.9087L32 30.4L14.5145 19.9087C13.848 19.5088 13 19.9889 13 20.7662V41.2338C13 42.0111 13.848 42.4912 14.5145 42.0913L32 31.6Z" fill="#967850"/>
		<path fill-rule="evenodd" clip-rule="evenodd" d="M32.2692 33.7653C32.1051 33.6604 31.895 33.6604 31.7308 33.7653L15.3505 44.2305C14.5272 44.7565 13.4288 44.3676 13.1199 43.4408L13.0257 43.1581C12.9383 42.8961 13.0799 42.613 13.3419 42.5256C13.6039 42.4383 13.887 42.5799 13.9744 42.8419L14.0686 43.1246C14.1716 43.4335 14.5377 43.5631 14.8121 43.3878L31.1924 32.9226C31.6849 32.608 32.3152 32.608 32.8076 32.9226L49.1879 43.3878C49.4623 43.5631 49.8285 43.4335 49.9314 43.1246L50.0257 42.8419C50.113 42.5799 50.3962 42.4383 50.6581 42.5256C50.9201 42.613 51.0617 42.8961 50.9744 43.1581L50.8801 43.4408C50.5712 44.3676 49.4728 44.7565 48.6495 44.2305L32.2692 33.7653Z" fill="#B2B1B1"/>
	</symbol>
</svg>